<svg xml:space="preserve" style="enable-background:new 0 0 223.39 172.34;" viewBox="0 0 223.39 172.34" y="0px" x="0px" xmlns:xlink="http://www.w3.org/1999/xlink" xmlns="http://www.w3.org/2000/svg" id="Layer_1" version="1.1">
<g>
	<path transform="translate(0, -20)" fill="#C66E71" d="M101.04,17.6C84.35,28.14,71.17,39.56,62.38,50.11c-5.27,6.15-9.67,13.18-11.42,21.09c25.48,0,47.45,20.21,50.08,46.56
		c2.64,28.12-18.45,52.72-45.69,54.48C27.24,173.99,2.64,152.9,0,125.67c0-6.15,0-10.54,1.76-15.82
		C4.39,79.1,21.96,47.47,54.47,21.99c7.03-6.15,14.94-11.42,21.96-16.7C90.5-3.49,102.8-2.61,101.04,17.6z M184.51,50.11
		c-5.27,6.15-9.66,13.18-12.3,21.09c26.36,0,48.32,20.21,50.96,46.56c2.64,28.12-18.45,52.72-45.69,54.48
		c-28.12,1.75-52.72-19.33-55.35-46.57c0-6.15,0-10.54,0.88-15.82c3.51-30.75,21.09-62.38,53.59-87.86
		c7.03-6.15,14.94-11.42,21.96-16.7c13.18-8.78,26.36-7.91,24.6,12.3C206.47,28.14,193.29,39.56,184.51,50.11z"></path>
</g>
</svg>