<?xml version="1.0" standalone="no"?>
<!DOCTYPE svg PUBLIC "-//W3C//DTD SVG 20010904//EN"
 "http://www.w3.org/TR/2001/REC-SVG-20010904/DTD/svg10.dtd">
<svg version="1.0" xmlns="http://www.w3.org/2000/svg"
 width="3132.000000pt" height="759.000000pt" viewBox="0 0 3132.000000 759.000000"
 preserveAspectRatio="xMidYMid meet">

<g transform="translate(0.000000,759.000000) scale(0.100000,-0.100000)"
fill="#000000" stroke="none">
<path d="M660 3800 l0 -3130 15000 0 15000 0 0 3130 0 3130 -15000 0 -15000 0
0 -3130z m29740 0 l0 -2870 -14740 0 -14740 0 0 2870 0 2870 14740 0 14740 0
0 -2870z"/>
<path d="M14780 5517 l0 -494 -52 -24 c-113 -52 -205 -181 -215 -301 l-6 -58
412 0 412 0 -7 48 c-21 143 -104 259 -226 315 l-48 22 0 492 0 493 -135 0
-135 0 0 -493z"/>
<path d="M4732 4936 c-527 -101 -892 -484 -952 -1003 -14 -116 -1 -286 29
-406 109 -426 439 -738 881 -833 114 -24 325 -29 442 -10 262 43 480 156 656
340 192 201 295 442 309 721 28 579 -331 1052 -897 1181 -93 21 -376 27 -468
10z m373 -466 c176 -45 330 -171 414 -339 99 -196 97 -456 -6 -654 -55 -107
-173 -222 -283 -275 -229 -113 -484 -90 -687 61 -109 81 -188 198 -234 347
-20 62 -24 97 -24 200 0 143 19 222 83 345 82 158 276 299 452 328 72 12 211
6 285 -13z"/>
<path d="M7492 4935 c-506 -92 -882 -487 -942 -990 -19 -162 4 -358 61 -523
95 -270 294 -493 559 -627 306 -154 699 -166 1012 -31 148 64 235 123 354 241
209 207 316 446 331 735 30 605 -359 1091 -955 1195 -103 18 -320 18 -420 0z
m368 -461 c119 -28 206 -78 301 -173 141 -141 199 -285 199 -496 0 -124 -19
-205 -72 -315 -58 -120 -170 -233 -289 -290 -378 -181 -794 4 -920 410 -20 63
-24 96 -23 205 0 113 4 140 27 210 60 182 185 328 343 402 129 59 302 78 434
47z"/>
<path d="M18470 4941 c0 -7 780 -2134 815 -2223 7 -17 29 -18 264 -18 l257 0
252 683 c139 375 326 880 416 1122 l163 440 -245 3 c-171 2 -248 -1 -252 -9
-4 -6 -137 -386 -296 -845 -159 -459 -291 -834 -294 -834 -3 0 -126 350 -274
778 -148 427 -280 807 -294 845 l-24 67 -244 0 c-143 0 -244 -4 -244 -9z"/>
<path d="M21865 4938 c-3 -7 -189 -512 -414 -1123 l-409 -1110 235 -3 c130 -1
238 0 241 2 4 5 162 446 162 453 0 2 215 2 477 1 l477 -3 80 -227 80 -228 239
0 c187 0 238 3 235 13 -3 6 -189 513 -414 1124 l-409 1113 -288 0 c-221 0
-289 -3 -292 -12z m464 -912 c88 -253 159 -461 157 -463 -2 -2 -151 -2 -332
-1 l-330 3 165 468 c90 257 168 464 172 460 3 -4 79 -215 168 -467z"/>
<path d="M23870 4197 c0 -446 4 -785 10 -833 36 -284 164 -478 394 -594 125
-63 243 -90 421 -97 233 -8 391 23 555 108 183 95 302 247 362 464 22 79 22
89 26 893 l3 812 -236 0 -235 0 0 -737 c0 -800 -2 -820 -55 -930 -34 -68 -119
-145 -193 -174 -81 -32 -252 -33 -332 -1 -113 44 -180 117 -223 245 -21 61
-22 76 -25 830 l-3 767 -234 0 -235 0 0 -753z"/>
<path d="M26480 3825 l0 -1125 590 0 590 0 0 205 0 205 -355 0 -355 0 0 920 0
920 -235 0 -235 0 0 -1125z"/>
<path d="M28092 4748 l3 -203 268 -3 267 -2 0 -920 0 -920 235 0 235 0 0 920
0 920 265 0 265 0 0 205 0 205 -770 0 -770 0 2 -202z"/>
<path d="M1780 3810 l0 -1100 250 0 250 0 0 390 0 390 485 0 485 0 0 220 0
220 -485 0 -485 0 0 260 0 260 525 0 525 0 0 230 0 230 -775 0 -775 0 0 -1100z"/>
<path d="M9365 4898 c-3 -7 -4 -501 -3 -1098 l3 -1085 510 0 c446 0 521 3 598
18 364 73 644 283 798 597 170 347 137 797 -82 1121 -100 149 -296 305 -464
370 -44 17 -127 43 -185 57 -104 25 -109 25 -637 29 -439 4 -534 2 -538 -9z
m1039 -468 c280 -71 459 -293 473 -585 6 -128 -13 -222 -68 -335 -56 -114
-163 -222 -270 -274 -122 -58 -173 -66 -441 -66 l-238 0 0 640 0 640 233 0
c200 0 245 -3 311 -20z"/>
<path d="M12804 3662 c-17 -11 -40 -32 -52 -47 -22 -28 -22 -28 -22 -615 l0
-587 23 -34 c39 -59 73 -69 240 -69 l147 0 0 -295 0 -296 38 -40 c31 -33 46
-42 82 -46 54 -5 100 19 130 69 19 31 20 51 20 321 l0 287 148 0 c134 0 151 2
186 23 70 40 95 121 56 184 -40 67 -46 68 -442 71 l-358 3 0 487 c0 444 -2
490 -18 521 -35 70 -119 100 -178 63z"/>
<path d="M16962 3660 c-18 -11 -41 -34 -52 -52 -19 -32 -20 -52 -20 -525 l0
-492 -357 -3 c-398 -3 -400 -4 -442 -71 -27 -45 -27 -95 2 -138 39 -59 73 -69
240 -69 l147 0 0 -285 c0 -226 3 -292 14 -313 53 -102 176 -107 236 -10 19 31
20 51 20 321 l0 287 148 0 c166 0 198 9 240 70 l22 33 0 581 c0 562 -1 582
-20 614 -25 40 -75 72 -115 72 -16 0 -45 -9 -63 -20z"/>
<path d="M13483 3255 c-84 -36 -96 -167 -22 -230 l31 -25 341 0 342 0 298
-271 c163 -149 297 -275 297 -279 0 -5 -146 -143 -325 -307 -358 -328 -367
-340 -346 -421 16 -59 60 -92 122 -92 28 0 59 5 70 10 11 6 164 144 342 307
177 162 327 297 334 300 7 3 88 -65 180 -150 92 -85 238 -218 323 -297 171
-157 202 -180 243 -180 38 0 100 33 120 64 21 31 22 97 3 134 -8 15 -154 161
-325 325 -171 164 -311 302 -311 307 0 5 134 130 298 279 l297 271 268 0 c220
0 273 3 297 15 87 45 77 202 -15 241 -50 21 -2813 21 -2862 -1z m1891 -264
c-5 -5 -94 -86 -199 -180 l-189 -171 -26 23 c-14 13 -95 86 -180 162 -85 76
-164 147 -175 157 -19 17 -8 18 380 18 243 0 395 -4 389 -9z"/>
</g>
</svg>
