
        <svg xmlns="http://www.w3.org/2000/svg" xmlns:xlink="http://www.w3.org/1999/xlink" version="1.1" width="3131.868131868132" 
        height="758.2417582417582" viewBox="0 0 3131.868131868132 758.2417582417582">
			<rect fill="#f51920" width="3131.868131868132" height="758.2417582417582"/>
			<g transform="scale(6.593406593406593) translate(10, 10)">
				<defs id="SvgjsDefs1101"></defs><g id="SvgjsG1102" featureKey="rootContainer" transform="matrix(1,0,0,1,0,0)" fill="#ffffff">    <path xmlns="http://www.w3.org/2000/svg" fill-rule="nonzero" d="             M0,0             H455             V95             H0,0             z             M4,4             v87             h447             v-87             z     "></path></g><g id="SvgjsG1103" featureKey="nameLeftFeature-0" transform="matrix(2.4314386662626966,0,0,2.4314386662626966,14.957591149331238,15.36273695667397)" fill="#ffffff"><path d="M10 15.14 l-6.06 0 l0 4.86 l-3.1 0 l0 -13.7 l9.68 0 l0 2.84 l-6.58 0 l0 3.28 l6.06 0 l0 2.72 z M20.536 20.28 c-4 0 -7.26 -3.06 -7.26 -7.12 c0 -4.08 3.26 -7.14 7.26 -7.14 c4.1 0 7.26 3.06 7.26 7.12 c0 4.08 -3.16 7.14 -7.26 7.14 z M20.536 17.4 c2.32 0 4.1 -1.84 4.1 -4.26 c0 -2.38 -1.78 -4.24 -4.1 -4.24 s-4.1 1.86 -4.1 4.26 s1.78 4.24 4.1 4.24 z M37.812 20.28 c-4 0 -7.26 -3.06 -7.26 -7.12 c0 -4.08 3.26 -7.14 7.26 -7.14 c4.1 0 7.26 3.06 7.26 7.12 c0 4.08 -3.16 7.14 -7.26 7.14 z M37.812 17.4 c2.32 0 4.1 -1.84 4.1 -4.26 c0 -2.38 -1.78 -4.24 -4.1 -4.24 s-4.1 1.86 -4.1 4.26 s1.78 4.24 4.1 4.24 z M48.148 20 l0 -13.7 l5.6 0 c4.22 0 6.98 3 6.98 6.78 c0 3.86 -2.88 6.92 -7.14 6.92 l-5.44 0 z M53.588 9.14 l-2.34 0 l0 8.02 l2.44 0 c2.22 0 3.92 -1.72 3.92 -4.04 c0 -2.28 -1.7 -3.98 -4.02 -3.98 z"></path></g><g id="SvgjsG1104" featureKey="inlineSymbolFeature-0" transform="matrix(2.0767929679619206,0,0,2.0767929679619206,181.33856522951365,11.923207032038079)" fill="#ffffff"><g xmlns="http://www.w3.org/2000/svg"><path d="M32.2,18c-0.5,0-1,0.5-1,1v7h-5c-0.5,0-1,0.5-1,1s0.5,1,1,1h2v4c0,0.5,0.5,1,1,1s1-0.5,1-1v-4h2c0.5,0,1-0.5,1-1v-8   C33.2,18.5,32.7,18,32.2,18z"></path><path d="M18.8,27l4.4-4h3.6c0.6,0,1-0.4,1-1s-0.4-1-1-1h-20c-0.6,0-1,0.4-1,1s0.4,1,1,1h4.6l4.4,4l-4.7,4.3c-0.4,0.4-0.4,1-0.1,1.4   c0.4,0.4,1,0.4,1.4,0.1l4.8-4.4l4.8,4.4c0.4,0.4,1,0.3,1.4-0.1c0.4-0.4,0.3-1-0.1-1.4L18.8,27z M14.4,23h5.8l-2.9,2.6L14.4,23z"></path><path d="M7.8,26h-5v-7c0-0.5-0.5-1-1-1s-1,0.5-1,1v8c0,0.5,0.5,1,1,1h2v4c0,0.5,0.5,1,1,1s1-0.5,1-1v-4h2c0.5,0,1-0.5,1-1   S8.4,26,7.8,26z"></path><path d="M17.8,8.2V1h-2v7.2c-1.2,0.4-2,1.5-2,2.8h6C19.8,9.7,19,8.6,17.8,8.2z"></path></g></g><g id="SvgjsG1105" featureKey="nameRightFeature-0" transform="matrix(2.423518995821182,0,0,2.423518995821182,252.03605049736257,15.728597089618876)" fill="#ffffff"><path d="M17.920140625000002 5.888999999999999 l3.1152 0 l-5.2148 14.111 l-3.2227 0 l-5.1855 -14.111 l3.1055 0 l3.7012 10.693 z M34.521953124999996 20 l-1.0254 -2.9102 l-5.9277 0 l-1.0254 2.9102 l-2.998 0 l5.1953 -14.111 l3.584 0 l5.1953 14.111 l-2.998 0 z M28.427753125 14.6387 l4.209 0 l-2.0996 -5.9863 z M46.787128125 20.19531 c-3.0957 0 -5.5176 -1.582 -5.5176 -5.1367 l0 -9.1699 l2.9297 0 l0 8.7695 c0 2.1484 1.1426 2.9492 2.5879 2.9492 c1.4551 0 2.6074 -0.81055 2.6074 -2.9492 l0 -8.7695 l2.9297 0 l0 9.1699 c0 3.5547 -2.4316 5.1367 -5.5371 5.1367 z M60.53715 17.4121 l4.4238 0 l0 2.5879 l-7.3535 0 l0 -14.111 l2.9297 0 l0 11.523 z M77.304921875 5.888999999999999 l0 2.5781 l-3.3496 0 l0 11.533 l-2.9004 0 l0 -11.533 l-3.3691 0 l0 -2.5781 l9.6191 0 z"></path></g>
			</g>
		</svg>
	